<?xml version="1.0" encoding="UTF-8"?>
<svg id="logo" xmlns="http://www.w3.org/2000/svg" viewBox="0 0 450 600">
  <defs>
    <style>
      .cls-1 {
        fill: #f2851d;
      }

      .cls-2 {
        fill: #144370;
      }

      .cls-3 {
        fill: #fff;
      }
    </style>
  </defs>
  <g id="Contour_logo" data-name="Contour logo">
    <rect id="contour_logo" data-name="contour logo" class="cls-2" width="450" height="450" rx="40" ry="40"/>
  </g>
  <g id="_" data-name="&amp;lt;&amp;gt;">
    <polygon class="cls-1" points="154.96 50.06 104.98 50.06 9.96 225 104.98 400.09 154.96 400.09 59.93 225 154.96 50.06"/>
    <polygon class="cls-1" points="294.98 50.06 345 50.06 440.02 225 345 400.09 294.98 400.09 390 225 294.98 50.06"/>
  </g>
  <g id="_-2" data-name="*">
    <path class="cls-3" d="M328.81,164.74l-104-59.86-103.84,60.14.16,120,104,59.86,103.84-60.14-.16-120ZM225.12,334.88l-95.34-54.87-.15-110,95.19-55.13,95.34,54.88.15,110-95.19,55.12Z"/>
    <polyline class="cls-3" points="230.02 117.86 230.02 109.99 219.98 109.99 219.98 339.99 230.02 339.93"/>
    <polyline class="cls-3" points="320.3 175.81 327.12 171.87 322.1 163.17 122.88 278.11 127.96 286.78"/>
    <polyline class="cls-3" points="134.82 166.95 128.01 163.01 122.97 171.7 322 286.97 326.98 278.25"/>
  </g>
  <g id="Calque_7" data-name="Calque 7">
    <g id="WEB_DEV_UX_UI_DESIGN" data-name="WEB DEV UX/UI DESIGN">
      <path class="cls-3" d="M137.37,493.9l6.62-29.43h7.41l-9.93,39.1h-7.15l-8.18-28.55-8.36,28.55h-7.18l-9.93-39.1h7.42l6.68,29.38,8.21-29.38h6.26l8.12,29.43Z"/>
      <path class="cls-3" d="M182.01,486.11h-17.67v12.03h20.65v5.42h-28.12v-39.1h27.92v5.48h-20.44v10.8h17.67v5.37Z"/>
      <path class="cls-3" d="M191.08,503.57v-39.1h14.74c4.86,0,8.57.89,11.11,2.66,2.54,1.77,3.81,4.41,3.81,7.92,0,1.79-.53,3.4-1.6,4.83s-2.62,2.54-4.67,3.33c2.32.57,4.12,1.65,5.39,3.24,1.27,1.58,1.91,3.49,1.91,5.71,0,3.67-1.3,6.49-3.88,8.46-2.59,1.97-6.3,2.95-11.12,2.95h-15.69ZM198.55,480.93h7.33c2.32,0,4.14-.48,5.45-1.44,1.31-.96,1.96-2.31,1.96-4.07,0-1.93-.61-3.33-1.82-4.19-1.21-.86-3.1-1.29-5.66-1.29h-7.27v10.98ZM198.55,485.92v12.22h8.3c2.34,0,4.17-.53,5.49-1.58,1.32-1.06,1.98-2.52,1.98-4.4,0-4.06-2.29-6.14-6.85-6.23h-8.92Z"/>
      <path class="cls-3" d="M244.31,503.57v-39.1h12.7c3.8,0,7.17.77,10.12,2.31s5.22,3.72,6.84,6.55c1.61,2.83,2.42,6.07,2.42,9.72v1.96c0,3.71-.81,6.96-2.44,9.78-1.62,2.81-3.94,4.98-6.94,6.5-3,1.52-6.45,2.28-10.32,2.28h-12.38ZM251.79,469.94v28.2h4.88c3.92,0,6.93-1.11,9.02-3.34,2.1-2.23,3.17-5.43,3.21-9.6v-2.18c0-4.24-1.01-7.48-3.04-9.72-2.03-2.24-4.97-3.36-8.83-3.36h-5.23Z"/>
      <path class="cls-3" d="M308.98,486.11h-17.67v12.03h20.65v5.42h-28.12v-39.1h27.92v5.48h-20.44v10.8h17.67v5.37Z"/>
      <path class="cls-3" d="M333.2,495.05l10.93-30.59h8.21l-15.48,39.1h-7.24l-15.42-39.1h8.18l10.81,30.59Z"/>
      <path class="cls-3" d="M69.53,554.46v26.13c0,4.15-1.46,7.44-4.39,9.87-2.92,2.43-6.82,3.64-11.68,3.64s-8.83-1.2-11.73-3.58c-2.9-2.39-4.34-5.71-4.34-9.95v-26.1h7.44v26.16c0,2.61.73,4.61,2.19,5.99,1.46,1.38,3.6,2.07,6.44,2.07,5.75,0,8.63-2.76,8.63-8.27v-25.94h7.44Z"/>
      <path class="cls-3" d="M92.31,568.59l9.04-14.13h8.63l-13,19.39,13.29,19.71h-8.71l-9.25-14.34-9.28,14.34h-8.69l13.32-19.71-13.03-19.39h8.63l9.04,14.13Z"/>
      <path class="cls-3" d="M117.12,596.92h-5.64l16.93-42.46h5.64l-16.93,42.46Z"/>
      <path class="cls-3" d="M171.18,554.46v26.13c0,4.15-1.46,7.44-4.39,9.87-2.92,2.43-6.82,3.64-11.68,3.64s-8.83-1.2-11.73-3.58c-2.9-2.39-4.34-5.71-4.34-9.95v-26.1h7.44v26.16c0,2.61.73,4.61,2.19,5.99,1.46,1.38,3.6,2.07,6.44,2.07,5.75,0,8.63-2.76,8.63-8.27v-25.94h7.44Z"/>
      <path class="cls-3" d="M187.05,593.57h-7.44v-39.1h7.44v39.1Z"/>
      <path class="cls-3" d="M211.3,593.57v-39.1h12.7c3.8,0,7.17.77,10.12,2.31s5.22,3.72,6.84,6.55c1.61,2.83,2.42,6.07,2.42,9.72v1.96c0,3.71-.81,6.96-2.44,9.78-1.62,2.81-3.94,4.98-6.94,6.5-3,1.52-6.44,2.28-10.32,2.28h-12.38ZM218.77,559.94v28.2h4.87c3.92,0,6.93-1.11,9.02-3.34,2.1-2.23,3.17-5.43,3.21-9.6v-2.18c0-4.24-1.01-7.48-3.04-9.72-2.03-2.24-4.97-3.36-8.83-3.36h-5.23Z"/>
      <path class="cls-3" d="M275.97,576.11h-17.67v12.03h20.65v5.42h-28.12v-39.1h27.92v5.48h-20.44v10.8h17.67v5.37Z"/>
      <path class="cls-3" d="M307.52,583.5c0-1.72-.66-3.04-1.99-3.97-1.33-.93-3.73-1.87-7.19-2.82-3.47-.95-6.22-2-8.27-3.17-3.92-2.24-5.88-5.16-5.88-8.75,0-3.15,1.41-5.75,4.24-7.79,2.83-2.04,6.49-3.06,11-3.06,2.99,0,5.66.5,8,1.5s4.19,2.43,5.52,4.28c1.34,1.85,2.01,3.91,2.01,6.16h-7.44c0-2.04-.7-3.64-2.11-4.79-1.41-1.16-3.42-1.73-6.04-1.73-2.44,0-4.34.47-5.69,1.42-1.35.95-2.02,2.27-2.02,3.97,0,1.43.73,2.63,2.19,3.59,1.46.96,3.86,1.89,7.21,2.79,3.35.9,6.04,1.93,8.07,3.09,2.03,1.16,3.51,2.48,4.46,3.97.95,1.5,1.42,3.25,1.42,5.25,0,3.26-1.37,5.85-4.12,7.78-2.75,1.92-6.47,2.89-11.18,2.89-3.11,0-5.97-.52-8.58-1.57-2.61-1.05-4.64-2.49-6.08-4.34s-2.17-3.99-2.17-6.45h7.47c0,2.22.81,3.94,2.42,5.16s3.93,1.83,6.94,1.83c2.6,0,4.55-.48,5.86-1.44,1.31-.96,1.96-2.22,1.96-3.8Z"/>
      <path class="cls-3" d="M329.44,593.57h-7.44v-39.1h7.44v39.1Z"/>
      <path class="cls-3" d="M371.59,588.49c-1.56,1.84-3.71,3.24-6.47,4.19-2.76.95-5.89,1.42-9.39,1.42s-6.79-.74-9.57-2.23c-2.78-1.49-4.92-3.61-6.43-6.38-1.51-2.77-2.29-5.99-2.35-9.68v-3.06c0-5.91,1.56-10.52,4.67-13.84,3.11-3.32,7.45-4.98,13.03-4.98,4.79,0,8.59,1.08,11.4,3.24,2.82,2.16,4.51,5.26,5.08,9.3h-7.33c-.83-4.71-3.83-7.06-9.01-7.06-3.35,0-5.89,1.1-7.64,3.29s-2.64,5.41-2.7,9.65v3c0,4.22.98,7.5,2.94,9.83,1.96,2.33,4.68,3.5,8.17,3.5,3.82,0,6.54-.79,8.15-2.36v-7.65h-8.86v-5.16h16.31v14.98Z"/>
      <path class="cls-3" d="M413.92,593.57h-7.47l-19.17-27.74v27.74h-7.47v-39.1h7.47l19.23,27.85v-27.85h7.42v39.1Z"/>
    </g>
    <rect class="cls-1" x="100.21" y="522.95" width="252.76" height="10.04"/>
  </g>
</svg>