<?xml version="1.0" encoding="UTF-8"?>
<svg id="logo" xmlns="http://www.w3.org/2000/svg" viewBox="0 0 450 380">
  <defs>
    <style>
      .cls-1 {
        fill: #f2851d;
      }

      .cls-2 {
        fill: #fff;
      }
    </style>
  </defs>
  <g id="_" data-name="&amp;lt;&amp;gt;">
    <polygon class="cls-1" points="154.96 15.06 104.98 15.06 9.96 190 104.98 365.09 154.96 365.09 59.93 190 154.96 15.06"/>
    <polygon class="cls-1" points="294.98 15.06 345 15.06 440.02 190 345 365.09 294.98 365.09 390 190 294.98 15.06"/>
  </g>
  <g id="_-2" data-name="*">
    <path class="cls-2" d="M328.81,129.74l-104-59.86-103.84,60.14.16,120,104,59.86,103.84-60.14-.16-120ZM225.12,299.88l-95.34-54.87-.15-110,95.19-55.13,95.34,54.88.15,110-95.19,55.12Z"/>
    <polyline class="cls-2" points="230.02 82.86 230.02 74.99 219.98 74.99 219.98 304.99 230.02 304.93"/>
    <polyline class="cls-2" points="320.3 140.81 327.12 136.87 322.1 128.17 122.88 243.11 127.96 251.78"/>
    <polyline class="cls-2" points="134.82 131.95 128.01 128.01 122.97 136.7 322 251.97 326.98 243.25"/>
  </g>
</svg>