<?xml version="1.0" encoding="UTF-8"?>
<svg xmlns="http://www.w3.org/2000/svg" viewBox="0 0 450 450">
  <defs>
    <style>
      .cls-1 {
        fill: #f2851d;
      }

      .cls-2 {
        fill: #fff;
      }
    </style>
  </defs>
  <rect width="450" height="450"/>
  <g id="logo">
    <g id="_" data-name="&amp;lt;&amp;gt;">
      <polygon class="cls-1" points="154.96 22.06 104.98 22.06 9.96 197 104.98 372.09 154.96 372.09 59.93 197 154.96 22.06"/>
      <polygon class="cls-1" points="294.98 22.06 345 22.06 440.02 197 345 372.09 294.98 372.09 390 197 294.98 22.06"/>
    </g>
    <g id="_-2" data-name="*">
      <path class="cls-2" d="M328.81,136.74l-104-59.86-103.84,60.14.16,120,104,59.86,103.84-60.14-.16-120ZM225.12,306.88l-95.34-54.87-.15-110,95.19-55.13,95.34,54.88.15,110-95.19,55.12Z"/>
      <polyline class="cls-2" points="230.02 89.86 230.02 81.99 219.98 81.99 219.98 311.99 230.02 311.93"/>
      <polyline class="cls-2" points="320.3 147.81 327.12 143.87 322.1 135.17 122.88 250.11 127.96 258.78"/>
      <polyline class="cls-2" points="134.82 138.95 128.01 135.01 122.97 143.7 322 258.97 326.98 250.25"/>
    </g>
    <g id="NORFLOW">
      <path class="cls-2" d="M112.56,432.42h-13.32l-14.1-21.36v21.36h-13.32v-42.48h13.32l14.1,21.72v-21.72h13.32v42.48Z"/>
      <path class="cls-2" d="M128.25,430.02c-3.34-1.88-5.99-4.48-7.95-7.8-1.96-3.32-2.94-7.06-2.94-11.22s.98-7.9,2.94-11.22c1.96-3.32,4.61-5.91,7.95-7.77,3.34-1.86,7.01-2.79,11.01-2.79s7.66.93,10.98,2.79c3.32,1.86,5.95,4.45,7.89,7.77,1.94,3.32,2.91,7.06,2.91,11.22s-.97,7.9-2.91,11.22c-1.94,3.32-4.58,5.92-7.92,7.8-3.34,1.88-6.99,2.82-10.95,2.82s-7.67-.94-11.01-2.82ZM145.38,417.87c1.44-1.7,2.16-3.99,2.16-6.87s-.72-5.23-2.16-6.93-3.48-2.55-6.12-2.55-4.74.85-6.18,2.55-2.16,4.01-2.16,6.93.72,5.17,2.16,6.87,3.5,2.55,6.18,2.55,4.68-.85,6.12-2.55Z"/>
      <path class="cls-2" d="M187.2,432.42l-7.98-15.24h-.06v15.24h-13.32v-42.48h19.8c3.44,0,6.38.61,8.82,1.83,2.44,1.22,4.27,2.88,5.49,4.98,1.22,2.1,1.83,4.47,1.83,7.11,0,2.84-.79,5.36-2.37,7.56-1.58,2.2-3.85,3.78-6.81,4.74l9.24,16.26h-14.64ZM179.16,408.3h5.28c1.28,0,2.24-.29,2.88-.87.64-.58.96-1.49.96-2.73,0-1.12-.33-2-.99-2.64-.66-.64-1.61-.96-2.85-.96h-5.28v7.2Z"/>
      <path class="cls-2" d="M236.04,389.94v10.56h-16.68v5.88h12v10.02h-12v16.02h-13.32v-42.48h30Z"/>
      <path class="cls-2" d="M253.86,422.34h12.84v10.08h-26.16v-42.48h13.32v32.4Z"/>
      <path class="cls-2" d="M280.59,430.02c-3.34-1.88-5.99-4.48-7.95-7.8-1.96-3.32-2.94-7.06-2.94-11.22s.98-7.9,2.94-11.22c1.96-3.32,4.61-5.91,7.95-7.77,3.34-1.86,7.01-2.79,11.01-2.79s7.66.93,10.98,2.79c3.32,1.86,5.95,4.45,7.89,7.77,1.94,3.32,2.91,7.06,2.91,11.22s-.97,7.9-2.91,11.22c-1.94,3.32-4.58,5.92-7.92,7.8-3.34,1.88-6.99,2.82-10.95,2.82s-7.67-.94-11.01-2.82ZM297.72,417.87c1.44-1.7,2.16-3.99,2.16-6.87s-.72-5.23-2.16-6.93c-1.44-1.7-3.48-2.55-6.12-2.55s-4.74.85-6.18,2.55c-1.44,1.7-2.16,4.01-2.16,6.93s.72,5.17,2.16,6.87c1.44,1.7,3.5,2.55,6.18,2.55s4.68-.85,6.12-2.55Z"/>
      <path class="cls-2" d="M379.38,389.94l-9.72,42.48h-16.56l-4.92-24.12-4.92,24.12h-16.56l-9.72-42.48h14.34l3.84,26.76,5.76-26.76h14.52l5.76,26.76,3.84-26.76h14.34Z"/>
    </g>
  </g>
</svg>